Coordinates
version=1
nRows=17
nColumns=38
inDegrees=no

Units are S.I. units (second, meters, Newtons, ...)
If the header above contains a line with 'inDegrees', this indicates whether rotational values are in degrees (yes) or radians (no).

endheader
time	pelvis_tilt	pelvis_list	pelvis_rotation	pelvis_tx	pelvis_ty	pelvis_tz	hip_flexion_r	hip_adduction_r	hip_rotation_r	knee_angle_r	ankle_angle_r	subtalar_angle_r	mtp_angle_r	hip_flexion_l	hip_adduction_l	hip_rotation_l	knee_angle_l	ankle_angle_l	subtalar_angle_l	mtp_angle_l	lumbar_extension	lumbar_bending	lumbar_rotation	arm_flex_r	arm_add_r	arm_rot_r	elbow_flex_r	pro_sup_r	wrist_flex_r	wrist_dev_r	arm_flex_l	arm_add_l	arm_rot_l	elbow_flex_l	pro_sup_l	wrist_flex_l	wrist_dev_l
5	2.6888	1.40164	-1.01961	0.649439	1.96135	0.945594	0.0166578	-0.00164459	-0.0200045	1.11452	-0.344391	0	0	0.0824091	-0.031766	0.0634165	0.377687	-0.28667	0	0	-0.273938	0.0716661	-0.0663885	0.42341	-0.484587	0.149292	1.49728	1.5708	0	0	0.479716	-0.234529	0.239428	1.49316	1.5708	0	0
5.01	2.68777	1.39987	-1.01678	0.648589	1.96485	0.946204	0.0240577	-0.00219344	-0.0233466	1.11017	-0.339268	0	0	0.0744167	-0.0325363	0.0649906	0.373285	-0.286461	0	0	-0.275562	0.0743487	-0.0700609	0.427185	-0.485802	0.153482	1.49427	1.5708	0	0	0.478929	-0.235542	0.239787	1.49333	1.5708	0	0
5.02	2.68466	1.39897	-1.01167	0.647768	1.96824	0.94671	0.0316243	-0.00267324	-0.0268188	1.10286	-0.323422	0	0	0.0670704	-0.032841	0.0691608	0.367596	-0.283925	0	0	-0.275406	0.0784067	-0.0818271	0.441963	-0.483526	0.171955	1.48344	1.5708	0	0	0.470922	-0.240643	0.230217	1.49899	1.5708	0	0
5.03	2.68439	1.39851	-1.01	0.646997	1.97148	0.947103	0.0394085	-0.00404913	-0.0303811	1.09364	-0.323423	0	0	0.0614477	-0.0328492	0.0701812	0.365174	-0.283456	0	0	-0.275602	0.0789774	-0.0804292	0.440016	-0.486544	0.168947	1.48284	1.5708	0	0	0.475368	-0.239511	0.23758	1.49353	1.5708	0	0
5.04	2.68037	1.39941	-1.00452	0.646297	1.97471	0.94737	0.0480446	-0.00552121	-0.0348482	1.08143	-0.316673	0	0	0.0573043	-0.0326686	0.0721951	0.362169	-0.282079	0	0	-0.27551	0.0809568	-0.0860975	0.446055	-0.486443	0.176284	1.47935	1.5708	0	0	0.4719	-0.241383	0.233847	1.49681	1.5708	0	0
5.05	2.67502	1.40074	-0.997947	0.645677	1.97786	0.94761	0.0569155	-0.0072336	-0.039834	1.06692	-0.309342	0	0	0.0537314	-0.0325211	0.0740024	0.359051	-0.280487	0	0	-0.274871	0.0833033	-0.0934257	0.454065	-0.485208	0.18637	1.47456	1.5708	0	0	0.466764	-0.24427	0.227884	1.50147	1.5708	0	0
5.06	2.66964	1.40235	-0.991703	0.645037	1.98094	0.947818	0.0653202	-0.00942137	-0.0459214	1.05009	-0.302839	0	0	0.050487	-0.0321535	0.0746583	0.356028	-0.279091	0	0	-0.273667	0.0857729	-0.10048	0.461848	-0.483831	0.196128	1.4699	1.5708	0	0	0.461639	-0.247245	0.222223	1.50602	1.5708	0	0
5.07	2.66356	1.40377	-0.984763	0.644464	1.98395	0.948036	0.0726453	-0.0112665	-0.0529011	1.03089	-0.296602	0	0	0.0473454	-0.0320995	0.0745941	0.353161	-0.27769	0	0	-0.272721	0.0886589	-0.107509	0.469653	-0.482166	0.205483	1.4658	1.5708	0	0	0.456357	-0.250415	0.216369	1.51094	1.5708	0	0
5.08	2.65988	1.40432	-0.980412	0.643903	1.98686	0.948307	0.0780618	-0.0129867	-0.0604415	1.00943	-0.291373	0	0	0.0432127	-0.0321768	0.0741722	0.350229	-0.276296	0	0	-0.27259	0.0918294	-0.114387	0.478343	-0.480245	0.21537	1.461	1.5708	0	0	0.450942	-0.25312	0.209675	1.51533	1.5708	0	0
5.09	2.66211	1.40283	-0.981995	0.643417	1.98963	0.948758	0.0797413	-0.0138978	-0.0671966	0.985071	-0.283416	0	0	0.0363017	-0.0326677	0.0741717	0.346211	-0.275115	0	0	-0.275177	0.0960466	-0.124691	0.492937	-0.476383	0.231748	1.4529	1.5708	0	0	0.442465	-0.257542	0.197553	1.52303	1.5708	0	0
5.1	2.66432	1.40165	-0.983785	0.643046	1.99235	0.94919	0.0806405	-0.0144936	-0.0726365	0.95885	-0.275895	0	0	0.0299024	-0.0330548	0.0741987	0.34251	-0.274059	0	0	-0.277793	0.0981827	-0.125511	0.495766	-0.477292	0.23346	1.45243	1.5708	0	0	0.443146	-0.257732	0.197862	1.52257	1.5708	0	0
5.11	2.67163	1.39958	-0.990358	0.642755	1.99497	0.949603	0.0794058	-0.0153155	-0.0785974	0.93183	-0.26883	0	0	0.0231548	-0.0332376	0.0741316	0.340393	-0.272771	0	0	-0.278657	0.0973479	-0.12033	0.492006	-0.481315	0.228357	1.45065	1.5708	0	0	0.451468	-0.253991	0.207617	1.51152	1.5708	0	0
5.12	2.67843	1.3974	-0.996727	0.642482	1.99747	0.950011	0.0774143	-0.0156713	-0.08227	0.903751	-0.261385	0	0	0.0167704	-0.0334013	0.0742651	0.338695	-0.271399	0	0	-0.279672	0.097169	-0.115433	0.489267	-0.484809	0.223864	1.44873	1.5708	0	0	0.459274	-0.250339	0.216297	1.50073	1.5708	0	0
5.13	2.68185	1.39609	-0.999887	0.642251	1.99992	0.95034	0.0759401	-0.0158121	-0.0852683	0.87473	-0.25495	0	0	0.0116683	-0.0335387	0.0754908	0.337391	-0.27012	0	0	-0.279816	0.0976565	-0.111973	0.488004	-0.486859	0.220916	1.44661	1.5708	0	0	0.464975	-0.247288	0.222274	1.49178	1.5708	0	0
5.14	2.68184	1.39592	-0.999883	0.642101	2.00235	0.950566	0.0753987	-0.015802	-0.0867816	0.845387	-0.249003	0	0	0.00786969	-0.0335159	0.0777694	0.336061	-0.268819	0	0	-0.279593	0.0983945	-0.108871	0.486787	-0.488686	0.218426	1.4463	1.5708	0	0	0.468818	-0.243956	0.22567	1.48531	1.5708	0	0
5.15	2.67981	1.39599	-0.997989	0.641988	2.0047	0.950748	0.074482	-0.0150696	-0.0865554	0.814447	-0.242964	0	0	0.00439784	-0.0336715	0.0806049	0.334488	-0.267506	0	0	-0.278939	0.0993424	-0.106098	0.485996	-0.490137	0.216734	1.44558	1.5708	0	0	0.471966	-0.240674	0.228059	1.4791	1.5708	0	0
5.16	2.67304	1.3974	-0.991268	0.641905	2.00704	0.950803	0.0744322	-0.0139757	-0.0858231	0.783795	-0.239279	0	0	0.00333635	-0.0337269	0.0829079	0.333831	-0.266598	0	0	-0.276219	0.100642	-0.104213	0.48562	-0.491066	0.216042	1.44403	1.5708	0	0	0.473697	-0.23758	0.228934	1.47323	1.5708	0	0
